<svg xmlns="http://www.w3.org/2000/svg" width="820" height="761" viewBox="0 0 820 761" role="img" aria-label="memoowi github stats terminal card">
<style>
  .mono { font-family: 'SFMono-Regular', Consolas, 'Liberation Mono', Menlo, monospace; }
  .header { fill: #24292f; font-size: 16px; font-weight: 700; }
  .label { fill: #57606a; font-size: 13.5px; }
  .static-val { fill: #24292f; font-size: 13.5px; }
  .live-val { fill: #0969da; font-size: 13.5px; font-weight: 700; }
  .section { fill: #cf222e; font-size: 13.5px; font-weight: 700; }
  .dim { fill: #8c959f; font-size: 12px; }
</style>
<rect width="820" height="761" rx="14" fill="#ffffff"/>
<rect x="0.5" y="0.5" width="819" height="760" rx="14" fill="none" stroke="#d0d7de"/>
<path d="M0.5 14.5 a13.5 13.5 0 0 1 13.5 -13.5 h792 a13.5 13.5 0 0 1 13.5 13.5 v34 h-819 z" fill="#f6f8fa" stroke="#d0d7de"/>
<circle cx="26" cy="24" r="6" fill="#ff5f56"/>
<circle cx="46" cy="24" r="6" fill="#ffbd2e"/>
<circle cx="66" cy="24" r="6" fill="#27c93f"/>
<text x="410.0" y="28.5" text-anchor="middle" class="mono dim">memoowi@github</text>
<text x="40" y="70" class="mono header">memoowi@github</text>
<line x1="40" y1="80" x2="780" y2="80" stroke="#d0d7de"/>
<text x="40" y="108" class="mono label">OS:</text>
<text x="230" y="108" class="mono static-val">Arch Linux x86_64</text>
<text x="40" y="133" class="mono label">WM:</text>
<text x="230" y="133" class="mono static-val">Hyprland (Wayland)</text>
<text x="40" y="158" class="mono label">Role:</text>
<text x="230" y="158" class="mono static-val">Full-Stack Developer</text>
<text x="40" y="183" class="mono label">Status:</text>
<text x="230" y="183" class="mono static-val">3rd-Year SE Student - Freelancer</text>
<text x="40" y="208" class="mono label">IDE:</text>
<text x="230" y="208" class="mono static-val">VS Code</text>
<text x="40" y="245.5" class="mono label">Languages.Programming:</text>
<text x="230" y="245.5" class="mono static-val">Dart, TypeScript, PHP, Python, JavaScript</text>
<text x="40" y="270.5" class="mono label">Languages.Frameworks:</text>
<text x="230" y="270.5" class="mono static-val">Flutter, Next.js, Laravel, Supabase</text>
<text x="40" y="308.0" class="mono label">Hobbies:</text>
<text x="230" y="308.0" class="mono static-val">Coding &amp; Travel/Backpacking</text>
<text x="40" y="345.5" class="mono section">Contact</text>
<line x1="40" y1="351.5" x2="780" y2="351.5" stroke="#d0d7de"/>
<text x="40" y="378.0" class="mono label">GitHub:</text>
<text x="230" y="378.0" class="mono static-val">github.com/memoowi</text>
<text x="40" y="403.0" class="mono label">Email:</text>
<text x="230" y="403.0" class="mono static-val">misbachulalwi@gmail.com</text>
<text x="40" y="428.0" class="mono label">LinkedIn:</text>
<text x="230" y="428.0" class="mono static-val">linkedin.com/in/memoowi</text>
<text x="40" y="465.5" class="mono section">GitHub Stats</text>
<line x1="40" y1="471.5" x2="780" y2="471.5" stroke="#d0d7de"/>
<text x="40" y="498.0" class="mono label">Repos:</text>
<text x="230" y="498.0" class="mono live-val" id="repo_data">102</text>
<text x="40" y="523.0" class="mono label">Stars:</text>
<text x="230" y="523.0" class="mono live-val" id="star_data">3</text>
<text x="40" y="548.0" class="mono label">Total Commits:</text>
<text x="230" y="548.0" class="mono live-val" id="commit_data">1,876</text>
<text x="40" y="573.0" class="mono label">Followers:</text>
<text x="230" y="573.0" class="mono live-val" id="follower_data">16</text>
<text x="40" y="598.0" class="mono label">Lines of Code:</text>
<text x="230" y="598.0" class="mono live-val" id="loc_data">3,631,253</text>
<text x="40" y="623.0" class="mono label">  Lines Added:</text>
<text x="230" y="623.0" class="mono live-val" id="loc_add">+3,711,694</text>
<text x="40" y="648.0" class="mono label">  Lines Deleted:</text>
<text x="230" y="648.0" class="mono live-val" id="loc_del">-80,441</text>
<text x="40" y="673.0" class="mono label">Member Since:</text>
<text x="230" y="673.0" class="mono live-val" id="uptime_data">2 yrs, 11 mos</text>
</svg>